<svg xmlns="http://www.w3.org/2000/svg" width="23.193" height="17.088" viewBox="0 0 23.193 17.088">
  <path id="eye-regular" d="M6.443,40.544A5.023,5.023,0,0,1,11.6,35.662a4.89,4.89,0,1,1,0,9.765A5.023,5.023,0,0,1,6.443,40.544ZM11.6,43.6a3.056,3.056,0,1,0,0-6.1H11.48a1.449,1.449,0,0,1,.117.61A2.514,2.514,0,0,1,9.02,40.544a1.683,1.683,0,0,1-.644-.111v.076A3.145,3.145,0,0,0,11.6,43.6ZM3.842,35.074A11.653,11.653,0,0,1,11.6,32a11.656,11.656,0,0,1,7.756,3.074,14.8,14.8,0,0,1,3.741,5,1.154,1.154,0,0,1,0,.938,15.484,15.484,0,0,1-3.741,5A11.649,11.649,0,0,1,11.6,49.088a11.645,11.645,0,0,1-7.755-3.074,15.544,15.544,0,0,1-3.743-5,1.16,1.16,0,0,1,0-.938,14.851,14.851,0,0,1,3.743-5ZM11.6,33.831a9.688,9.688,0,0,0-6.439,2.582,13.205,13.205,0,0,0-3.167,4.131,13.6,13.6,0,0,0,3.167,4.131A9.688,9.688,0,0,0,11.6,47.257a9.688,9.688,0,0,0,6.439-2.582A14.243,14.243,0,0,0,21.2,40.544a13.807,13.807,0,0,0-3.169-4.131A9.688,9.688,0,0,0,11.6,33.831Z" transform="translate(0 -32)" fill="#fff"/>
</svg>
