<svg xmlns="http://www.w3.org/2000/svg" width="31.533" height="29.124" viewBox="0 0 31.533 29.124">
  <path id="github" d="M10.547,31.45c0,.12-.146.217-.331.217-.21.018-.356-.078-.356-.217,0-.12.146-.217.331-.217C10.382,31.215,10.547,31.312,10.547,31.45ZM8.57,31.179c-.045.12.083.259.273.3.165.06.356,0,.394-.12s-.083-.259-.273-.313a.334.334,0,0,0-.394.139Zm2.81-.1c-.184.042-.312.157-.292.3.019.12.184.2.375.157s.312-.157.292-.277S11.564,31.059,11.38,31.077ZM15.563,8C6.745,8,0,14.341,0,22.694A15.181,15.181,0,0,0,10.776,37.1c.814.139,1.1-.337,1.1-.729,0-.373-.019-2.433-.019-3.7,0,0-4.45.9-5.385-1.795,0,0-.725-1.752-1.767-2.2,0,0-1.456-.945.1-.927A3.393,3.393,0,0,1,7.26,29.3a3.468,3.468,0,0,0,4.635,1.259,3.283,3.283,0,0,1,1.017-2.029c-3.554-.373-7.14-.861-7.14-6.654a4.445,4.445,0,0,1,1.5-3.547,5.411,5.411,0,0,1,.165-4.089c1.329-.391,4.387,1.626,4.387,1.626a15.826,15.826,0,0,1,7.985,0s3.058-2.023,4.387-1.626a5.408,5.408,0,0,1,.165,4.089A4.574,4.574,0,0,1,26,21.875c0,5.811-3.745,6.275-7.3,6.654a3.464,3.464,0,0,1,1.081,2.794c0,2.029-.019,4.541-.019,5.035,0,.391.292.867,1.1.729A15.033,15.033,0,0,0,31.533,22.694C31.533,14.341,24.381,8,15.563,8ZM6.18,28.77c-.083.06-.064.2.045.313.1.1.248.139.331.06.083-.06.064-.2-.045-.313C6.408,28.734,6.262,28.692,6.18,28.77Zm-.687-.488c-.045.078.019.175.146.235a.2.2,0,0,0,.273-.042c.045-.078-.019-.175-.146-.235C5.639,28.2,5.537,28.222,5.493,28.283Zm2.06,2.144c-.1.078-.064.259.083.373.146.139.331.157.413.06.083-.078.045-.259-.083-.373C7.826,30.348,7.635,30.33,7.553,30.427Zm-.725-.885c-.1.06-.1.217,0,.355s.273.2.356.139a.321.321,0,0,0-.356-.494Z" transform="translate(0 -8)" fill="#fff"/>
</svg>
