<svg xmlns="http://www.w3.org/2000/svg" width="19.89" height="18.37" viewBox="0 0 19.89 18.37">
  <path id="github" d="M6.653,22.791c0,.076-.092.137-.209.137-.132.011-.225-.049-.225-.137s.092-.137.209-.137S6.653,22.7,6.653,22.791ZM5.405,22.62c-.028.076.052.163.172.186.1.038.225,0,.249-.076s-.052-.163-.172-.2a.211.211,0,0,0-.249.087Zm1.772-.065c-.116.027-.2.1-.184.186s.116.125.237.1.2-.1.184-.175S7.294,22.544,7.178,22.556ZM9.816,8C4.255,8,0,12,0,17.268a9.575,9.575,0,0,0,6.8,9.086c.513.087.694-.213.694-.46s-.012-1.535-.012-2.332c0,0-2.807.57-3.4-1.132,0,0-.457-1.105-1.115-1.39,0,0-.918-.6.064-.585a2.14,2.14,0,0,1,1.548.98,2.187,2.187,0,0,0,2.923.794,2.071,2.071,0,0,1,.642-1.28c-2.242-.236-4.5-.543-4.5-4.2a2.8,2.8,0,0,1,.946-2.237,3.413,3.413,0,0,1,.1-2.579c.838-.247,2.767,1.026,2.767,1.026a9.982,9.982,0,0,1,5.037,0s1.929-1.276,2.767-1.026a3.411,3.411,0,0,1,.1,2.579A2.885,2.885,0,0,1,16.4,16.752c0,3.666-2.362,3.958-4.6,4.2a2.185,2.185,0,0,1,.682,1.762c0,1.28-.012,2.864-.012,3.176,0,.247.184.547.694.46a9.482,9.482,0,0,0,6.729-9.078C19.89,12,15.378,8,9.816,8ZM3.9,21.1c-.052.038-.04.125.028.2s.156.087.209.038.04-.125-.028-.2S3.95,21.051,3.9,21.1Zm-.433-.308c-.028.049.012.11.092.148a.123.123,0,0,0,.172-.027c.028-.049-.012-.11-.092-.148C3.557,20.744,3.493,20.755,3.465,20.793Zm1.3,1.352c-.064.049-.04.163.052.236.092.087.209.1.261.038s.028-.163-.052-.236C4.936,22.1,4.816,22.085,4.764,22.145Zm-.457-.558c-.064.038-.064.137,0,.224s.172.125.225.087a.2.2,0,0,0-.225-.311Z" transform="translate(0 -8)" fill="#fff"/>
</svg>
