<svg xmlns="http://www.w3.org/2000/svg" width="29.124" height="29.124" viewBox="0 0 29.124 29.124">
  <path id="linkedin" d="M27.043,32H2.074A2.089,2.089,0,0,0,0,34.1V59.024a2.089,2.089,0,0,0,2.074,2.1h24.97a2.1,2.1,0,0,0,2.08-2.1V34.1A2.1,2.1,0,0,0,27.043,32ZM8.8,56.963H4.486v-13.9H8.809v13.9Zm-2.158-15.8a2.5,2.5,0,1,1,2.5-2.5A2.5,2.5,0,0,1,6.644,41.166Zm18.339,15.8H20.666V50.2c0-1.612-.033-3.686-2.243-3.686-2.249,0-2.594,1.755-2.594,3.569v6.878H11.513v-13.9h4.141v1.9h.059A4.546,4.546,0,0,1,19.8,42.72c4.369,0,5.181,2.88,5.181,6.624Z" transform="translate(0 -32)" fill="#fff"/>
</svg>
