<svg xmlns="http://www.w3.org/2000/svg" width="29.728" height="29.728" viewBox="0 0 29.728 29.728">
  <path id="square-js" d="M26.543,32H3.185A3.186,3.186,0,0,0,0,35.185V58.543a3.186,3.186,0,0,0,3.185,3.185H26.543a3.186,3.186,0,0,0,3.185-3.185V35.185A3.186,3.186,0,0,0,26.543,32ZM16.178,55.185c0,2.893-1.7,4.214-4.174,4.214A4.34,4.34,0,0,1,7.81,56.844l2.276-1.374c.438.776.836,1.433,1.8,1.433.916,0,1.5-.358,1.5-1.758v-9.5h2.794ZM22.787,59.4a5.361,5.361,0,0,1-5.09-2.853l2.276-1.314a3.049,3.049,0,0,0,2.754,1.7c1.155,0,1.9-.577,1.9-1.38,0-.956-.756-1.294-2.037-1.858l-.7-.3c-2.017-.856-3.351-1.938-3.351-4.214,0-2.1,1.6-3.689,4.088-3.689A4.114,4.114,0,0,1,26.6,47.727L24.419,49.12a1.9,1.9,0,0,0-1.8-1.194,1.213,1.213,0,0,0-1.334,1.194c0,.836.518,1.175,1.719,1.7l.7.3c2.376,1.015,3.709,2.057,3.709,4.393C27.412,58.019,25.435,59.4,22.787,59.4Z" transform="translate(0 -32)" fill="#f0db4f"/>
</svg>
