<svg xmlns="http://www.w3.org/2000/svg" width="29.728" height="29.728" viewBox="0 0 29.728 29.728">
  <path id="square-git" d="M6.675,52.056c3.223.22,3.912.14,3.912.792,0,1.327-4.35,1.331-4.35.1A1.5,1.5,0,0,1,6.675,52.056Zm1.855-7.74a1.483,1.483,0,1,0-.05,2.951A1.479,1.479,0,1,0,8.53,44.316Zm21.2-9.131V58.543a3.185,3.185,0,0,1-3.185,3.185H3.185A3.185,3.185,0,0,1,0,58.543V35.185A3.185,3.185,0,0,1,3.185,32H26.543a3.185,3.185,0,0,1,3.185,3.185Zm-15.063,4.6A1.384,1.384,0,0,0,16.182,41.3a1.39,1.39,0,0,0,1.535-1.518,1.362,1.362,0,0,0-1.534-1.48A1.358,1.358,0,0,0,14.665,39.784Zm-1.448,3.032H9.929c-1.659-.435-5.412-.322-5.412,3.1a2.693,2.693,0,0,0,1.45,2.529c-1.041.954-1.534,1.4-1.534,2.04A1.123,1.123,0,0,0,5.175,51.6a2.182,2.182,0,0,0-.929,1.72c0,1.332,1.165,2.1,4.216,2.1,2.934,0,4.636-1.1,4.636-3.035,0-2.433-1.873-2.344-6.289-2.613l.556-.891c1.128.315,4.923.413,4.923-2.816a2.674,2.674,0,0,0-.624-1.7l1.551-.118Zm5.6,7.289-.863-.118c-.253-.034-.27-.066-.27-.338v-7h-3.49l-.185,1.365c1.045.368,1.128.322,1.128.675v4.96c0,.373-.021.3-1.128.456v1.331h4.806Zm6.668.674-.456-1.484c-2.716,1.02-2.512-.823-2.512-1.11V44.155h2.512V42.469H22.648c-.19,0-.133.167-.133-2.563h-1.6c-.185,1.838-.775,2.58-2.256,2.749v1.5c1.358,0,1.315-.056,1.315.169v4.417c0,1.906.758,2.715,2.765,2.715A6.7,6.7,0,0,0,25.481,50.779Z" transform="translate(0 -32)" fill="#f34f29"/>
</svg>
